<svg xmlns="http://www.w3.org/2000/svg" width="32" height="32"><path fill="#4d5ae5" d="M32 16c0 4.418-1.791 8.418-4.686 11.314S20.419 32 16 32c-4.418 0-8.418-1.791-11.314-4.686S0 20.419 0 16c0-4.418 1.791-8.418 4.686-11.314S11.581 0 16 0c4.418 0 8.418 1.791 11.314 4.686S32 11.581 32 16z"/><path fill="#f4f4fd" d="M25.595 25.6v-.001h.005v-7.042c0-3.445-.742-6.098-4.769-6.098-1.936 0-3.235 1.062-3.766 2.07h-.056v-1.748h-3.818v12.818h3.976v-6.347c0-1.671.317-3.287 2.386-3.287 2.039 0 2.07 1.907 2.07 3.394V25.6h3.972zM6.717 12.782h3.981V25.6H6.717V12.782zM8.706 6.4C7.433 6.4 6.4 7.433 6.4 8.706s1.033 2.327 2.306 2.327c1.273 0 2.306-1.054 2.306-2.327S9.978 6.4 8.706 6.4z"/></svg>